<?xml version="1.0" encoding="UTF-8" standalone="no"?>
<!-- Created with Inkscape (http://www.inkscape.org/) -->

<svg
   width="100px"
   height="100px"
   viewBox="0 0 50 50"
   version="1.1"
   id="svg8"
   inkscape:version="1.1.2 (b8e25be833, 2022-02-05)"
   sodipodi:docname="rwd-logo.svg"
   xmlns:inkscape="http://www.inkscape.org/namespaces/inkscape"
   xmlns:sodipodi="http://sodipodi.sourceforge.net/DTD/sodipodi-0.dtd"
   xmlns="http://www.w3.org/2000/svg"
   xmlns:svg="http://www.w3.org/2000/svg"
   xmlns:rdf="http://www.w3.org/1999/02/22-rdf-syntax-ns#"
   xmlns:cc="http://creativecommons.org/ns#"
   xmlns:dc="http://purl.org/dc/elements/1.1/">
  <defs
     id="defs2">
    <linearGradient
       id="linearGradient4531"
       inkscape:swatch="solid">
      <stop
         style="stop-color:#000000;stop-opacity:1;"
         offset="0"
         id="stop4529" />
    </linearGradient>
  </defs>
  <sodipodi:namedview
     id="base"
     pagecolor="#ffffff"
     bordercolor="#666666"
     borderopacity="1.0"
     inkscape:pageopacity="0.0"
     inkscape:pageshadow="2"
     inkscape:zoom="5.6"
     inkscape:cx="-2.9464286"
     inkscape:cy="9.1071429"
     inkscape:document-units="mm"
     inkscape:current-layer="layer6"
     showgrid="false"
     inkscape:object-nodes="false"
     inkscape:snap-smooth-nodes="true"
     units="cm"
     inkscape:window-width="1920"
     inkscape:window-height="991"
     inkscape:window-x="-9"
     inkscape:window-y="-9"
     inkscape:window-maximized="1"
     inkscape:pagecheckerboard="0" />
  <metadata
     id="metadata5">
    <rdf:RDF>
      <cc:Work
         rdf:about="">
        <dc:format>image/svg+xml</dc:format>
        <dc:type
           rdf:resource="http://purl.org/dc/dcmitype/StillImage" />
      </cc:Work>
    </rdf:RDF>
  </metadata>
  <g
     inkscape:groupmode="layer"
     id="layer4"
     inkscape:label="Layer 4"
     style="display:none"
     transform="translate(0,-50)" />
  <g
     inkscape:groupmode="layer"
     id="layer6"
     inkscape:label="Layer 5"
     style="display:inline"
     transform="translate(0,-50)">
    <path
       style="display:inline;fill:#086450;fill-opacity:1;fill-rule:evenodd;stroke-width:0.12637343"
       d="m 3.8098195,50.045465 c -1.5889776,0 -3.74004663,1.331687 -3.74004663,2.985681 v 32.63669 c 0,1.653995 1.84751713,2.985682 3.43649593,2.985682 h 5.1645875 v 9.05085 c 0,1.590376 1.7489507,2.238644 2.6064957,2.238644 h 0.6071 22.360797 0.607103 c 0.857542,0 2.077242,-0.648265 2.077242,-2.238644 V 94.13453 h 3.849412 c 0.817187,0 2.004318,-1.065801 2.004318,-1.726692 v -3.75432 h 4.191797 c 1.588978,0 3.132647,-1.331687 3.132647,-2.985682 v -32.63669 c 0,-1.653994 -1.543669,-2.985681 -3.132647,-2.985681 z m 3.1425231,4.163168 H 43.355629 c 1.359176,0 2.45331,1.036874 2.45331,2.324735 v 24.428223 c 0,1.28786 -1.094134,2.324424 -2.45331,2.324424 H 42.42345 v -5.157057 c 0,-0.660892 -1.18713,-1.726693 -2.00432,-1.726693 h -3.567387 v -9.496151 c 0,-1.590382 -1.74895,-2.772731 -2.606494,-2.772731 H 11.277352 c -0.857545,0 -2.6578556,1.183192 -2.6064957,2.772731 V 83.286015 H 6.9523426 c -1.3591754,0 -2.4536049,-1.036564 -2.4536049,-2.324424 V 56.533368 c 0,-1.287861 1.0944295,-2.324735 2.4536049,-2.324735 z m 6.8527224,13.703713 h 17.91247 c 0.66879,0 1.207386,0.417031 1.207386,1.719946 v 6.769973 H 17.92494 c -0.817191,-10e-7 -2.004319,1.065801 -2.004319,1.726693 v 13.799367 c 0,0.660891 1.187128,2.042972 2.004319,2.042972 h 14.999981 v 0.847672 c -0.161497,0.92767 -0.610048,1.276846 -1.142171,1.276846 H 13.870281 c -0.668791,0 -1.207384,-0.417027 -1.207384,-1.719946 0.0096,-7.912206 -0.0688,-17.581807 -0.06492,-24.743577 0,-1.302915 0.538299,-1.719946 1.20709,-1.719946 z m 7.219709,11.698035 16.883662,0.01826 c 0,0 1.684672,-0.300381 1.703136,1.412276 0.0909,2.63514 -0.03206,6.599487 0.03578,8.020652 -9.49e-4,1.345146 -1.499332,1.302116 -1.499332,1.302116 l -17.730351,0.08322 c -0.7217,0.0034 -1.302542,-0.386495 -1.302542,-0.866454 v -9.103617 c 0,-0.479959 0.277283,-0.866453 0.998991,-0.866453 z"
       id="rect9966-6-4"
       inkscape:connector-curvature="0"
       sodipodi:nodetypes="sssscssccsscsscsssssssssscsscsssscsssssssccsssccssccscccccssssc" />
    <path
       style="fill:#ff00ff;stroke-width:0.178571"
       d="m 20.767361,99.412216 c -1.398027,-0.50787 -2.4307,-1.359457 -2.918141,-2.406421 l -0.435017,-0.934366 -0.0017,-9.408715 -0.0017,-9.408716 -5.9375,-0.05557 -5.9374997,-0.05557 -1.3761156,-0.65713 C 2.5338991,75.709413 1.319633,74.572988 0.70477989,73.252377 L 0.27134604,72.321429 0.26960159,38.740418 0.26785714,5.1594087 0.72828391,4.2354525 C 1.6568879,2.3719871 4.3405864,0.61608723 6.7857143,0.27217516 8.547338,0.02439931 93.179529,0.02839263 94.707482,0.2763237 c 2.128495,0.345377 3.959073,1.6567633 4.855447,3.4783334 L 100,4.6428571 V 38.75 72.857143 L 99.476816,73.8015 c -0.665239,1.20077 -1.81337,2.260204 -3.106253,2.866284 -1.009643,0.473302 -1.03189,0.475286 -5.968777,0.532316 l -4.955357,0.05724 v 3.924839 c 0,4.428223 -0.0033,4.4423 -1.336359,5.671056 C 82.770609,88.087909 82.591011,88.125 77.952164,88.125 h -4.112878 v 3.636341 c 0,1.999988 -0.08173,4.067307 -0.181625,4.594043 -0.244984,1.291795 -0.880715,2.190482 -2.006106,2.835887 l -0.937269,0.53752 -24.553572,-0.0058 C 23.459532,99.71772 21.543787,99.694275 20.767361,99.412216 Z M 64.99945,91.643407 c 0.660023,-0.660023 0.980218,-1.589191 0.981696,-2.848764 l 9.97e-4,-0.848214 -14.955357,-0.0011 C 41.317964,87.944643 35.839127,87.879845 35.409246,87.760454 34.508168,87.510195 32.894043,85.992611 32.334362,84.86948 L 31.875,83.947734 V 70.047111 c 0,-13.407591 0.01229,-13.924723 0.346623,-14.580061 0.403604,-0.791129 1.333272,-1.653991 2.3298,-2.162382 0.686827,-0.350393 1.038923,-0.358239 16.076938,-0.358239 h 15.37473 L 65.947973,45.3125 c -0.06033,-8.356095 -0.0499,-8.272991 -1.147059,-9.136018 -0.473918,-0.372784 -0.480427,-0.372911 -19.208864,-0.372911 -20.777441,0 -19.442441,-0.07963 -20.0769,1.197492 -0.311679,0.627385 -0.339921,1.245582 -0.381754,8.35608 -0.02485,4.223214 0.0162,16.116071 0.0912,26.428571 0.126353,17.37255 0.159353,18.792304 0.449205,19.325831 0.638111,1.174569 -0.601996,1.105576 20.0137,1.113448 l 18.723214,0.0071 L 64.99945,91.6434 Z M 77.946429,80.388798 c 1.487794,-0.719852 1.443423,-0.384859 1.387905,-10.478084 -0.05402,-9.820687 -0.02858,-9.611921 -1.262646,-10.364371 -0.5576,-0.339989 -1.043368,-0.348597 -19.713517,-0.349247 l -19.141826,-6.67e-4 -0.501031,0.43088 -0.501028,0.430882 -0.04906,9.717993 -0.04906,9.717995 0.391055,0.497148 c 0.830875,1.056284 -0.187944,1.010903 20.064206,0.893723 l 18.57143,-0.107454 z M 17.451867,49.598214 17.5,32.5 17.915725,31.720863 c 0.542795,-1.017288 1.820684,-2.246717 2.960264,-2.848 l 0.909725,-0.480006 h 23.75 23.75 l 0.784293,0.418356 c 1.115597,0.595076 2.371822,1.828507 2.979631,2.92556 l 0.521791,0.941798 0.0516,10.133929 0.0516,10.133929 h 3.838066 c 4.336093,0 4.55465,0.04725 5.883095,1.271762 1.370139,1.262952 1.336359,1.08255 1.336359,7.136559 v 5.390343 l 1.654055,-0.08652 c 2.504732,-0.131014 3.993188,-0.9698 4.875098,-2.747254 0.337252,-0.679714 0.345847,-1.336008 0.345847,-26.411321 0,-25.075313 -0.0086,-25.731606 -0.345847,-26.411322 C 90.791793,10.142412 89.8429,9.228732 88.855248,8.7719152 L 88.035714,8.3928571 H 50.267857 12.5 L 11.591068,8.8724604 C 10.580146,9.4058791 9.6586548,10.359029 9.2187329,11.326299 8.9552255,11.90568 8.9285714,14.309991 8.9285714,37.5 c 0,28.305261 -0.095973,26.04143 1.1648836,27.477466 1.117364,1.272607 2.395505,1.690934 5.215555,1.707016 l 2.094724,0.01195 z"
       id="path19289"
       transform="matrix(0.5,0,0,0.5,0,50)" />
    <path
       style="fill:#a11163;stroke-width:0.178571;fill-opacity:1"
       d="M 40.535714,99.556268 C 22.724561,99.472098 21.014561,99.438521 20.401855,99.160927 19.31692,98.669382 18.569959,98.00445 18.085546,97.098988 L 17.631347,96.25 17.506739,86.786304 c -0.06853,-5.205033 -0.154336,-9.493425 -0.190671,-9.529759 -0.03634,-0.03634 -2.701779,-0.107247 -5.923209,-0.157579 L 5.5357143,77.007452 4.2356668,76.369723 C 2.6969184,75.614902 1.5216559,74.546618 0.92416862,73.359657 L 0.49143827,72.5 0.36101436,38.988527 0.23059045,5.4770543 0.81656852,4.3776468 C 1.4907987,3.1126614 2.481758,2.1724259 3.9854571,1.3709626 6.0770939,0.25613177 4.8576582,0.3074425 31.428571,0.21622652 44.785714,0.17037243 64.59375,0.18332013 75.446429,0.24499916 l 19.732142,0.1121437 1.187724,0.56272321 C 97.761496,1.580889 98.828109,2.5838527 99.458188,3.8272507 l 0.452526,0.8930195 V 38.805664 72.891059 l -0.687968,1.064418 c -0.771173,1.193157 -1.599785,1.943378 -2.844617,2.575502 -0.86744,0.440484 -1.41762,0.477548 -10.150038,0.683778 l -0.736196,0.01739 -0.131474,3.973214 c -0.08996,2.718538 -0.206264,4.118427 -0.368316,4.433063 -0.315771,0.613096 -1.590592,1.749596 -2.290628,2.042089 -0.373238,0.15595 -1.95965,0.278952 -4.712422,0.365379 l -4.149769,0.130278 -0.01579,1.447629 c -0.0087,0.796194 -0.07011,2.693162 -0.136496,4.215484 -0.15204,3.486309 -0.410309,4.1432 -2.044184,5.199223 L 70.569626,99.73214 65.28481,99.69019 C 62.378162,99.66712 51.241067,99.60685 40.53571,99.556262 Z m 24.791881,-8.18608 c 0.480573,-0.663422 0.568984,-0.956306 0.625296,-2.071475 L 66.018479,87.999907 50.777096,87.871102 35.535714,87.742296 34.806493,87.31853 c -0.948132,-0.55098 -1.906148,-1.622928 -2.505256,-2.803191 l -0.479133,-0.94391 0.128601,-13.75 c 0.143361,-15.328054 0.05644,-14.375909 1.420654,-15.562481 1.435498,-1.248575 0.377595,-1.171041 17.357861,-1.272178 l 15.372078,-0.09156 -0.06872,-6.894032 C 65.954463,38.164945 65.853662,37.022489 65.18103,36.349873 L 64.724005,35.892857 H 45.754859 c -10.433029,0 -19.188666,0.06143 -19.456968,0.136516 -0.281216,0.0787 -0.621552,0.381218 -0.803571,0.714286 -0.294718,0.539287 -0.318975,1.713623 -0.364195,17.631341 -0.02664,9.379464 0.01857,21.392857 0.100477,26.696429 0.175709,11.377362 0.05917,10.734434 2.001541,11.042175 0.245536,0.0389 8.791523,0.0614 18.991086,0.04999 l 18.544655,-0.02074 z M 78.125,80.437827 c 1.295816,-0.716861 1.279946,-0.577173 1.216279,-10.705684 -0.06154,-9.790684 -0.04321,-9.63663 -1.216484,-10.222938 -0.583213,-0.291442 -1.904677,-0.312241 -19.855909,-0.3125 L 39.037773,59.196429 38.586638,59.598214 38.135502,60 l -0.03095,9.802214 -0.03095,9.802216 0.427663,0.531168 c 0.276973,0.344009 0.67928,0.58324 1.141768,0.67895 0.392759,0.08128 9.031071,0.129793 19.19625,0.107804 l 18.482143,-0.03998 z M 88.350552,66.3874 c 1.193682,-0.319043 2.405269,-1.281259 2.921516,-2.320205 0.323028,-0.650097 0.335075,-1.595534 0.335075,-26.299338 0,-14.09375 -0.0622,-25.917218 -0.138218,-26.274374 C 91.285859,10.633402 90.079264,9.2878559 89.001177,8.7415477 L 88.136873,8.3035714 H 50.204857 12.27284 l -1.079151,0.7206297 c -0.604055,0.4033723 -1.3125815,1.0730449 -1.6093728,1.5211179 -0.4985017,0.7526 -0.5375096,0.941839 -0.6520535,3.163299 -0.067008,1.299546 -0.090807,12.929775 -0.052888,25.844953 0.053276,18.145595 0.1196421,23.635436 0.2920261,24.156667 0.320301,0.968483 1.1472852,1.825719 2.3140272,2.398675 0.932535,0.457944 1.212048,0.5032 3.456823,0.5597 l 2.442251,0.06147 0.07075,-1.668614 c 0.03891,-0.917736 0.08586,-8.613924 0.104318,-17.102638 l 0.03357,-15.434025 0.427335,-0.729193 c 0.54715,-0.933641 2.1498,-2.451043 3.10159,-2.936609 l 0.73871,-0.376862 h 23.674943 c 22.964777,0 23.694816,0.01025 24.337472,0.341553 1.046468,0.539486 2.179514,1.609334 2.923518,2.760454 l 0.685439,1.060505 7.14e-4,7.874102 c 3.57e-4,4.330756 0.0524,8.887206 0.115554,10.125447 l 0.114828,2.251346 3.85035,0.127927 c 2.526752,0.08395 4.045586,0.209502 4.418297,0.36523 0.779668,0.325766 2.043225,1.497973 2.314321,2.147007 0.151122,0.361797 0.266316,2.289034 0.354836,5.936425 l 0.13107,5.400709 1.269651,-0.105194 c 0.698309,-0.05786 1.732759,-0.228972 2.298777,-0.380254 z"
       id="path19922"
       transform="matrix(0.5,0,0,0.5,0,50)" />
    <path
       style="fill:#a11163;fill-opacity:1;stroke-width:0.178571"
       d="M 48.392857,99.541098 C 21.82035,99.378409 21.018163,99.359623 20.081532,98.878088 19.291614,98.471982 18.638959,97.817136 18.064136,96.853923 17.701025,96.24547 17.677375,95.969895 17.658033,92.12178 17.622907,85.133532 17.417591,77.446607 17.261916,77.291302 c -0.08184,-0.08164 -2.744224,-0.202923 -5.91641,-0.269507 L 5.5778941,76.900732 4.351447,76.281832 C 2.7981484,75.497993 1.6354637,74.474877 1.0390288,73.367038 L 0.57223679,72.5 0.44249113,38.989107 0.31274546,5.4782152 0.86877511,4.5063768 C 2.1164314,2.3257009 4.3117696,0.92187066 7.0253384,0.56950295 8.2507764,0.41037493 19.493191,0.35834334 51.875,0.36193195 l 43.214286,0.004789 1.121353,0.58080522 c 1.425607,0.73839263 2.434609,1.65061163 3.090456,2.79401833 l 0.516982,0.9013125 0.0016,34.091509 0.0016,34.091511 -0.526675,0.819203 c -0.697941,1.085595 -1.881387,2.21389 -2.838198,2.705929 -0.907236,0.466546 -3.205432,0.671095 -7.795841,0.693861 -1.571429,0.0078 -2.945732,0.07321 -3.054009,0.145364 -0.123923,0.08259 -0.241423,1.355229 -0.317123,3.434766 -0.176593,4.85117 -0.189474,4.915991 -1.165222,5.864538 -0.451434,0.438848 -1.077619,0.905267 -1.391521,1.036487 -0.444541,0.18583 -5.971781,0.563366 -8.734343,0.596595 -0.133868,0.0016 -0.237988,1.143884 -0.321688,3.529166 -0.156667,4.464782 -0.3399,5.606841 -1.024689,6.386771 -0.607593,0.692013 -2.125509,1.706688 -2.489182,1.663934 -0.138586,-0.01631 -9.935121,-0.08893 -21.769943,-0.161393 z m 17.026559,-8.146189 c 0.4379,-0.623066 0.540138,-0.973396 0.612325,-2.098214 l 0.08665,-1.350266 -1.675268,-0.01532 C 35.943271,87.67043 35.635191,87.664536 35.078654,87.369354 34.284448,86.948114 33.074259,85.679255 32.482121,84.646939 L 31.967638,83.75 l 0.0093,-6.696429 c 0.01418,-10.17141 0.272221,-20.882558 0.519228,-21.552425 0.245852,-0.666725 1.539304,-1.78551 2.370833,-2.050675 0.362626,-0.115637 6.322055,-0.24708 15.928582,-0.351325 8.44205,-0.09161 15.365125,-0.183533 15.384609,-0.204282 0.13578,-0.144585 -0.297224,-15.161269 -0.452016,-15.675982 -0.10557,-0.351043 -0.381668,-0.816494 -0.613552,-1.034337 l -0.421604,-0.396077 -19.176882,0.05219 c -14.872459,0.04048 -19.263855,0.101989 -19.564364,0.274037 -0.884488,0.506388 -0.863943,-0.128743 -0.841886,26.028157 0.01327,15.733856 0.08918,25.282252 0.212705,26.756379 0.204234,2.437168 0.429899,3.06851 1.146195,3.20671 0.2234,0.0431 8.960402,0.06904 19.415557,0.05764 l 19.009373,-0.02073 z M 78.258589,80.456718 c 0.664236,-0.421247 0.857052,-0.660241 0.972461,-1.205357 0.242411,-1.145002 0.154848,-17.701329 -0.09828,-18.582195 -0.430458,-1.497977 1.315229,-1.37738 -20.717192,-1.431193 l -19.546679,-0.04774 -0.416593,0.39137 -0.416593,0.391368 v 9.937744 9.937745 l 0.401877,0.377545 c 0.221032,0.207648 0.602729,0.457634 0.848214,0.555523 0.286034,0.114057 7.215999,0.182043 19.295306,0.189296 l 18.848968,0.01132 z M 17.560594,62.024559 c 0.06489,-2.667741 0.117977,-10.414245 0.117977,-17.214448 V 32.446102 l 0.788072,-1.044481 c 0.799018,-1.058987 2.006971,-2.081541 3.136984,-2.655512 0.587675,-0.2985 1.894293,-0.310657 24.017857,-0.223479 20.796686,0.08195 23.470991,0.123584 24.067905,0.374675 0.846436,0.35605 2.460109,1.871525 3.145584,2.954159 l 0.523688,0.827107 0.06814,10.036165 c 0.03748,5.519889 0.112021,10.080041 0.165651,10.133671 0.05363,0.05363 1.831234,0.177134 3.950231,0.274454 2.118998,0.09732 4.064516,0.257466 4.323377,0.355884 0.690894,0.262678 1.670501,1.081364 2.083591,1.741318 0.307326,0.490987 0.385292,1.051139 0.521962,3.75 0.08837,1.745037 0.163048,4.237526 0.165955,5.538866 l 0.0053,2.366071 h 0.744302 c 1.234427,0 3.044541,-0.378161 3.923171,-0.819612 1.05709,-0.531115 2.040752,-1.673113 2.183168,-2.534583 0.06034,-0.365014 0.110598,-12.218203 0.111679,-26.340419 0.0019,-25.004874 -0.007,-25.694412 -0.342245,-26.351467 C 90.882184,10.082591 89.778243,9.0108104 88.948107,8.5815305 88.466557,8.3325116 84.439863,8.3035714 50.273177,8.3035714 H 12.13576 L 11.418899,8.7561063 C 10.377873,9.413277 9.3248489,10.563117 9.0776152,11.31265 8.804313,12.141213 8.6724177,42.19792 8.8859054,55 c 0.1606498,9.63358 0.1243085,9.346632 1.3100966,10.344407 1.412273,1.18835 1.594341,1.229173 6.694949,1.501175 l 0.551666,0.02942 z"
       id="path28676"
       transform="matrix(0.5,0,0,0.5,0,50)" />
  </g>
  <g
     inkscape:label="Layer 1"
     inkscape:groupmode="layer"
     id="layer1"
     transform="translate(0,-247)"
     style="display:none"
     sodipodi:insensitive="true">
    <g
       aria-label="A"
       transform="matrix(2.0309415,0,0,2.1577634,-839.20169,-449.57668)"
       style="font-style:normal;font-weight:normal;font-size:40px;line-height:1.25;font-family:sans-serif;letter-spacing:0px;word-spacing:0px;fill:#000000;fill-opacity:1;stroke:none"
       id="flowRoot3694" />
    <rect
       style="fill:#000000;fill-opacity:1;fill-rule:evenodd;stroke-width:0.26458332"
       id="rect9966"
       width="84.189903"
       height="62.541069"
       x="6.4144688"
       y="204.25748"
       rx="4.99999"
       ry="4.99999" />
    <rect
       style="fill:#ffffff;fill-opacity:1;fill-rule:evenodd;stroke-width:0.21592782"
       id="rect9966-6"
       width="72.014076"
       height="48.696781"
       x="12.502382"
       y="211.17963"
       rx="4.2768745"
       ry="3.8931763" />
  </g>
  <g
     inkscape:groupmode="layer"
     id="layer2"
     inkscape:label="Layer 2"
     transform="translate(0,-247)"
     style="display:none;opacity:1"
     sodipodi:insensitive="true" />
  <g
     inkscape:groupmode="layer"
     id="layer3"
     inkscape:label="Layer 3"
     style="display:none"
     sodipodi:insensitive="true"
     transform="translate(0,-50)" />
</svg>
